<svg width="180" height="45" fill="none" xmlns="http://www.w3.org/2000/svg"><path d="M14.533 14.4c2.267-2.247 5.245-3.364 8.224-3.364s5.957 1.117 8.224 3.364a11.311 11.311 0 0 1 3.413 8.108c0 2.924-1.146 5.86-3.413 8.108-2.267 2.247-5.245 3.364-8.224 3.364-2.966 0-5.957-1.129-8.224-3.364a11.311 11.311 0 0 1-3.413-8.108c0-2.924 1.146-5.873 3.413-8.108Zm15.034 14.821c1.878-1.864 2.817-4.276 2.817-6.713 0-2.436-.939-4.861-2.817-6.713a9.682 9.682 0 0 0-6.81-2.778 9.661 9.661 0 0 0-6.81 2.778c-1.878 1.864-2.817 4.277-2.817 6.713 0 2.437.939 4.861 2.817 6.713A9.682 9.682 0 0 0 22.758 32a9.66 9.66 0 0 0 6.81-2.778Z" fill="url(#a)"/><path d="M41.534 16.133v-.002c-.183-.508.095-1.073.626-1.255a.993.993 0 0 1 1.262.627l.001.003a21.238 21.238 0 0 1 1.188 6.99c0 5.51-2.133 11.042-6.4 15.248-4.266 4.206-9.866 6.31-15.454 6.31-5.588 0-11.188-2.104-15.455-6.31a21.335 21.335 0 0 1-6.4-15.235 21.294 21.294 0 0 1 6.4-15.236C11.57 3.055 17.17.95 22.77.95c2.352 0 4.69.37 6.946 1.112.527.17.81.734.637 1.258-.172.52-.744.798-1.275.628a20.066 20.066 0 0 0-6.308-1.017c-5.08 0-10.162 1.912-14.04 5.735-3.878 3.823-5.817 8.82-5.817 13.83 0 5.008 1.939 10.005 5.817 13.829 3.878 3.823 8.947 5.734 14.028 5.734 5.08-.012 10.15-1.911 14.027-5.734a19.304 19.304 0 0 0 5.818-13.84 19.078 19.078 0 0 0-1.068-6.353Z" fill="url(#b)"/><path d="m36.037 9.504-.02-.07-.07-.018-5.306-1.452 5.306-1.452.07-.02.02-.069 1.473-5.22 1.473 5.22.02.07.07.019 5.295 1.452-5.296 1.452-.07.019-.02.07-1.472 5.23-1.473-5.23Z" fill="url(#c)"/><path d="M53.85 13.579h1.503v6.328H53.85v-6.329Zm.758-1.043a.986.986 0 0 1-.685-.25.845.845 0 0 1-.277-.64c0-.252.092-.461.276-.627a.96.96 0 0 1 .686-.26c.272 0 .5.082.685.248a.76.76 0 0 1 .276.604c0 .261-.092.482-.276.664-.176.174-.405.26-.685.26Zm6.324-.925c.729 0 1.362.119 1.899.356.545.237.961.576 1.25 1.019.288.442.433.968.433 1.576 0 .6-.145 1.126-.433 1.576-.289.443-.705.782-1.25 1.02-.537.236-1.17.355-1.9.355h-1.899v2.394H57.47V11.61h3.462Zm-.073 4.598c.681 0 1.198-.142 1.551-.426.353-.285.529-.691.529-1.22 0-.53-.176-.937-.529-1.221-.353-.285-.87-.427-1.55-.427h-1.828v3.294h1.827Zm8.83-2.701c.81 0 1.46.233 1.948.699.49.466.734 1.157.734 2.074v3.626h-1.503V16.47c0-.553-.132-.968-.397-1.244-.264-.285-.641-.427-1.13-.427-.553 0-.99.166-1.31.498-.32.324-.481.794-.481 1.41v3.2h-1.503v-8.793h1.503v3.2c.249-.261.553-.459.914-.593a3.38 3.38 0 0 1 1.226-.213Zm7.531 6.482c-.649 0-1.234-.138-1.755-.415-.52-.276-.93-.66-1.226-1.15a3.294 3.294 0 0 1-.433-1.682c0-.624.145-1.181.433-1.671.297-.49.705-.873 1.226-1.15a3.684 3.684 0 0 1 1.755-.415c.657 0 1.246.139 1.767.415.521.277.926.66 1.215 1.15.296.49.444 1.047.444 1.67 0 .625-.148 1.186-.445 1.683a3.02 3.02 0 0 1-1.214 1.15c-.52.277-1.11.415-1.767.415Zm0-1.268c.553 0 1.01-.182 1.37-.545.361-.364.542-.842.542-1.434 0-.593-.18-1.07-.541-1.434-.36-.364-.818-.545-1.37-.545-.554 0-1.01.181-1.371.545-.353.363-.529.841-.529 1.434 0 .592.176 1.07.529 1.434.36.363.817.545 1.37.545Zm8.505-5.215c.81 0 1.459.234 1.948.7.488.466.733 1.157.733 2.074v3.626h-1.502V16.47c0-.553-.133-.968-.397-1.244-.264-.285-.641-.427-1.13-.427-.553 0-.99.166-1.31.498-.321.324-.481.794-.481 1.41v3.2h-1.503v-6.329h1.43v.818c.25-.292.562-.513.938-.663.377-.15.802-.226 1.275-.226Zm10.68 3.271c0 .103-.008.25-.023.439h-5.038c.09.466.318.837.686 1.114.376.268.841.403 1.394.403.706 0 1.286-.23 1.744-.688l.805.913c-.289.34-.653.596-1.094.77-.44.174-.938.26-1.49.26-.706 0-1.327-.137-1.864-.414a3.062 3.062 0 0 1-1.25-1.15 3.293 3.293 0 0 1-.433-1.682c0-.616.14-1.17.42-1.66a3.04 3.04 0 0 1 1.191-1.16 3.494 3.494 0 0 1 1.707-.415c.625 0 1.182.138 1.67.414.498.269.883.652 1.155 1.15.28.49.42 1.059.42 1.706Zm-3.245-2.085c-.48 0-.89.142-1.226.426-.328.277-.53.648-.602 1.114h3.643a1.738 1.738 0 0 0-.588-1.114c-.33-.284-.739-.426-1.227-.426ZM57.457 26.044c.729 0 1.362.119 1.899.356.545.237.962.576 1.25 1.019.289.442.433.968.433 1.576 0 .6-.144 1.126-.433 1.576-.288.443-.705.783-1.25 1.02-.537.236-1.17.355-1.9.355h-1.899v2.394h-1.562v-8.296h3.462Zm-.072 4.598c.68 0 1.198-.142 1.55-.426.353-.285.53-.692.53-1.22 0-.53-.177-.937-.53-1.221-.352-.285-.87-.427-1.55-.427h-1.828v3.294h1.828Zm8.83-2.702c.81 0 1.459.233 1.947.7.49.466.734 1.157.734 2.074v3.626h-1.503v-3.437c0-.553-.132-.968-.397-1.244-.264-.285-.64-.427-1.13-.427-.553 0-.99.166-1.31.498-.32.324-.48.794-.48 1.41v3.2h-1.503v-8.794h1.502v3.2c.249-.26.553-.458.914-.592a3.382 3.382 0 0 1 1.226-.214Zm7.53 6.483c-.649 0-1.234-.138-1.755-.415a3.104 3.104 0 0 1-1.226-1.15 3.294 3.294 0 0 1-.432-1.682c0-.625.144-1.181.432-1.671.297-.49.706-.873 1.227-1.15a3.684 3.684 0 0 1 1.755-.415c.657 0 1.246.139 1.767.415.52.277.925.66 1.214 1.15.296.49.444 1.046.444 1.67 0 .625-.148 1.186-.444 1.683a3.02 3.02 0 0 1-1.214 1.15c-.521.277-1.11.415-1.767.415Zm0-1.268c.553 0 1.01-.182 1.37-.545.362-.364.542-.842.542-1.434 0-.593-.18-1.07-.541-1.434-.36-.364-.817-.545-1.37-.545-.553 0-1.01.181-1.37.545-.354.363-.53.841-.53 1.434 0 .592.176 1.07.53 1.434.36.363.816.545 1.37.545Zm8.722.841a1.776 1.776 0 0 1-.649.32 2.875 2.875 0 0 1-.793.107c-.706 0-1.25-.182-1.635-.545-.385-.364-.577-.893-.577-1.588v-3.046h-1.058V28.06h1.058v-1.446h1.502v1.446h1.72v1.185h-1.72v3.01c0 .308.076.545.229.711.152.158.372.237.66.237.338 0 .618-.087.842-.26l.421 1.054Zm3.91.427c-.65 0-1.234-.138-1.755-.415-.521-.276-.93-.66-1.226-1.15a3.295 3.295 0 0 1-.433-1.682c0-.625.144-1.181.433-1.671.296-.49.705-.873 1.226-1.15a3.685 3.685 0 0 1 1.755-.415c.657 0 1.246.139 1.767.415.521.277.926.66 1.215 1.15.296.49.444 1.046.444 1.67 0 .625-.148 1.186-.444 1.683a3.02 3.02 0 0 1-1.215 1.15c-.52.277-1.11.415-1.767.415Zm0-1.268c.553 0 1.01-.182 1.37-.545.361-.364.541-.842.541-1.434 0-.593-.18-1.07-.54-1.434-.362-.364-.818-.545-1.371-.545s-1.01.181-1.37.545c-.353.363-.53.841-.53 1.434 0 .592.177 1.07.53 1.434.36.363.817.545 1.37.545Zm11.234-5.143v5.368c0 2.228-1.154 3.342-3.462 3.342-.617 0-1.203-.08-1.755-.237-.553-.15-1.01-.371-1.37-.664l.673-1.114c.28.23.633.411 1.057.545.433.143.87.214 1.31.214.706 0 1.222-.158 1.551-.474.329-.316.493-.798.493-1.446v-.332a2.468 2.468 0 0 1-.938.628 3.34 3.34 0 0 1-1.213.213 3.605 3.605 0 0 1-1.66-.379 3.012 3.012 0 0 1-1.165-1.09c-.281-.466-.421-1-.421-1.6 0-.6.14-1.13.42-1.588a2.927 2.927 0 0 1 1.167-1.078 3.607 3.607 0 0 1 1.659-.38c.464 0 .885.076 1.261.226.385.15.706.379.962.687v-.841h1.431ZM94.185 32.8c.57 0 1.033-.166 1.394-.497.369-.34.553-.779.553-1.316 0-.53-.184-.96-.553-1.292-.36-.332-.825-.497-1.394-.497-.577 0-1.05.165-1.419.497-.36.332-.54.763-.54 1.292 0 .537.18.976.54 1.316.37.331.842.497 1.419.497Zm6.832-3.863c.433-.664 1.194-.996 2.284-.996v1.41a1.929 1.929 0 0 0-.349-.035c-.584 0-1.042.17-1.37.51-.329.332-.493.814-.493 1.445v3.07h-1.502v-6.329h1.43v.925Zm5.975-.996c.946 0 1.668.226 2.164.676.505.442.758 1.114.758 2.015v3.709h-1.419v-.77c-.184.276-.448.49-.793.64-.337.142-.746.213-1.226.213-.481 0-.902-.08-1.263-.237a2.047 2.047 0 0 1-.841-.676 1.753 1.753 0 0 1-.289-.983c0-.57.213-1.023.638-1.363.433-.348 1.11-.522 2.031-.522h1.659v-.094c0-.443-.136-.783-.408-1.02-.266-.237-.662-.355-1.191-.355-.36 0-.717.055-1.07.166-.345.11-.637.265-.877.462l-.589-1.078a3.662 3.662 0 0 1 1.214-.581 5.475 5.475 0 0 1 1.502-.202Zm-.204 5.404c.377 0 .709-.082.998-.248a1.41 1.41 0 0 0 .625-.735v-.735h-1.55c-.866 0-1.299.28-1.299.841a.75.75 0 0 0 .325.64c.216.158.516.237.901.237Zm8.612-5.404c.625 0 1.182.135 1.671.403.497.269.886.648 1.166 1.138.281.49.421 1.055.421 1.695 0 .64-.14 1.209-.421 1.706-.28.49-.669.87-1.166 1.138-.489.268-1.046.403-1.671.403-.866 0-1.55-.285-2.055-.853v3.069h-1.503v-8.628h1.431v.83c.248-.3.553-.525.913-.675.369-.15.774-.226 1.214-.226Zm-.168 5.215c.553 0 1.006-.182 1.358-.545.361-.364.541-.842.541-1.434 0-.593-.18-1.07-.541-1.434-.352-.364-.805-.545-1.358-.545-.361 0-.686.083-.974.248a1.721 1.721 0 0 0-.685.688 2.09 2.09 0 0 0-.252 1.043c0 .395.083.742.252 1.043.168.3.396.533.685.699.288.158.613.237.974.237Zm8.494-5.215c.809 0 1.458.233 1.947.7.488.466.733 1.157.733 2.074v3.626h-1.502v-3.437c0-.553-.133-.968-.397-1.244-.265-.285-.641-.427-1.13-.427-.553 0-.99.166-1.31.498-.321.324-.482.794-.482 1.41v3.2h-1.502v-8.794h1.502v3.2c.249-.26.553-.458.914-.592a3.387 3.387 0 0 1 1.227-.214Zm10.479.072L131.2 34.85c-.28.688-.621 1.17-1.022 1.446-.4.285-.885.427-1.455.427-.32 0-.636-.051-.949-.154a2.12 2.12 0 0 1-.77-.427l.601-1.09a1.662 1.662 0 0 0 1.106.438c.265 0 .482-.067.65-.201.176-.134.336-.36.48-.676l.109-.248-2.801-6.353h1.562l2.02 4.682 2.032-4.682h1.442Zm7.014 6.446a6.57 6.57 0 0 1-1.887-.272c-.601-.182-1.078-.423-1.43-.723l.541-1.197c.344.269.765.49 1.262.664a4.82 4.82 0 0 0 1.514.248c.625 0 1.091-.098 1.395-.296.312-.197.469-.458.469-.782a.731.731 0 0 0-.264-.58 1.72 1.72 0 0 0-.65-.368 14.587 14.587 0 0 0-1.082-.296c-.641-.15-1.162-.3-1.563-.45a2.646 2.646 0 0 1-1.021-.7c-.281-.324-.421-.758-.421-1.303 0-.459.125-.873.373-1.245.256-.379.637-.68 1.142-.9.512-.222 1.137-.332 1.875-.332.513 0 1.018.063 1.514.19.497.126.926.307 1.286.544l-.492 1.197a4.897 4.897 0 0 0-1.154-.485 4.372 4.372 0 0 0-1.167-.166c-.616 0-1.077.102-1.382.308-.296.205-.444.478-.444.817 0 .238.084.431.252.581.177.15.397.269.662.356.264.087.624.185 1.081.296a10.79 10.79 0 0 1 1.538.45c.402.15.742.383 1.023.7.288.316.432.742.432 1.28 0 .458-.128.872-.384 1.244-.249.371-.63.667-1.142.889-.513.22-1.139.331-1.876.331Zm7.753-.035c-.666 0-1.262-.138-1.791-.415a3.09 3.09 0 0 1-1.239-1.15 3.229 3.229 0 0 1-.444-1.682c0-.625.148-1.181.444-1.671a3.11 3.11 0 0 1 1.227-1.15c.528-.276 1.13-.415 1.803-.415.633 0 1.186.127 1.659.38.48.252.841.616 1.082 1.09l-1.154.663a1.767 1.767 0 0 0-.698-.651 1.835 1.835 0 0 0-.901-.225c-.562 0-1.026.181-1.394.545-.369.355-.553.833-.553 1.434 0 .6.18 1.082.541 1.446.368.355.837.533 1.406.533.328 0 .629-.071.901-.213.281-.15.513-.372.698-.664l1.154.663a2.611 2.611 0 0 1-1.094 1.103c-.473.252-1.023.379-1.647.379Zm7.623-6.483c.81 0 1.459.233 1.947.7.489.466.734 1.157.734 2.074v3.626h-1.503v-3.437c0-.553-.132-.968-.397-1.244-.264-.285-.641-.427-1.13-.427-.553 0-.989.166-1.31.498-.32.324-.48.794-.48 1.41v3.2h-1.503v-8.794h1.503v3.2c.248-.26.553-.458.913-.592a3.381 3.381 0 0 1 1.226-.214Zm7.531 6.483c-.65 0-1.234-.138-1.756-.415a3.097 3.097 0 0 1-1.225-1.15 3.29 3.29 0 0 1-.433-1.682c0-.625.144-1.181.433-1.671.296-.49.704-.873 1.225-1.15a3.689 3.689 0 0 1 1.756-.415c.657 0 1.246.139 1.767.415.521.277.926.66 1.214 1.15.297.49.445 1.046.445 1.67a3.22 3.22 0 0 1-.445 1.683c-.288.49-.693.873-1.214 1.15-.521.277-1.11.415-1.767.415Zm0-1.268c.553 0 1.009-.182 1.37-.545.361-.364.541-.842.541-1.434 0-.593-.18-1.07-.541-1.434-.361-.364-.817-.545-1.37-.545-.553 0-1.01.181-1.371.545-.353.363-.528.841-.528 1.434 0 .592.175 1.07.528 1.434.361.363.818.545 1.371.545Zm7.747 1.268a3.684 3.684 0 0 1-1.755-.415 3.097 3.097 0 0 1-1.225-1.15 3.29 3.29 0 0 1-.434-1.682c0-.625.145-1.181.434-1.671.296-.49.704-.873 1.225-1.15a3.685 3.685 0 0 1 1.755-.415c.658 0 1.247.139 1.768.415.521.277.926.66 1.214 1.15.296.49.444 1.046.444 1.67 0 .625-.148 1.186-.444 1.683-.288.49-.693.873-1.214 1.15-.521.277-1.11.415-1.768.415Zm0-1.268c.553 0 1.011-.182 1.371-.545.361-.364.541-.842.541-1.434 0-.593-.18-1.07-.541-1.434-.36-.364-.818-.545-1.371-.545-.552 0-1.009.181-1.37.545-.352.363-.529.841-.529 1.434 0 .592.177 1.07.529 1.434.361.363.818.545 1.37.545Zm4.863-7.608h1.503v8.793h-1.503v-8.794Z" fill="#EEECEC"/><defs><linearGradient id="a" x1="11.12" y1="11.036" x2="34.062" y2="34.307" gradientUnits="userSpaceOnUse"><stop stop-color="#D41C3D"/><stop offset="1" stop-color="#861B83"/></linearGradient><linearGradient id="b" x1=".902" y1=".951" x2="44.001" y2="44.656" gradientUnits="userSpaceOnUse"><stop stop-color="#D41C3D"/><stop offset="1" stop-color="#861B83"/></linearGradient><linearGradient id="c" x1="30.641" y1="1.203" x2="44.172" y2="14.928" gradientUnits="userSpaceOnUse"><stop stop-color="#D41C3D"/><stop offset="1" stop-color="#861B83"/></linearGradient></defs></svg>