<svg width="127" height="34" fill="none" xmlns="http://www.w3.org/2000/svg"><rect width="127" height="34" rx="16.853" fill="#000" fill-opacity=".2"/><ellipse cx="79.115" cy="17.132" rx="9.629" ry="9.752" fill="#000" fill-opacity=".4"/><path d="M78.33 15.876v-.09c0-.386.276-.733.743-.733.424 0 .742.305.742.695 0 .442-.335.794-.636 1.104l-2.08 2.15v.858h4.176v-1.103h-2.291v-.064l1.166-1.243c.476-.5 1.036-.997 1.036-1.842 0-.933-.82-1.642-2.088-1.642-1.438 0-2.079.947-2.079 1.833v.077h1.311Z" fill="#EEECEC"/><ellipse cx="16.396" cy="17.132" rx="9.629" ry="9.752" fill="#000" fill-opacity=".4"/><path d="M10.377 17.102c0 1.748.865 2.864 2.278 2.864s2.309-1.142 2.309-2.864v-.284c0-1.753-.853-2.852-2.279-2.852s-2.308 1.125-2.308 2.852v.284Zm1.396-.28c0-1.103.335-1.744.895-1.744.565 0 .9.645.9 1.744v.276c0 1.103-.34 1.756-.9 1.756s-.895-.649-.895-1.756v-.276ZM16.741 21.434l.527-2.694h-1.346l-.284 2.694h1.103ZM18.163 18.286c.025.942.853 1.68 2.155 1.68 1.35 0 2.274-.806 2.274-2.08 0-1.234-.878-1.896-1.866-1.896-.662 0-1.053.31-1.167.497h-.068l.11-1.324h2.644v-1.095H18.51l-.23 3.412h1.227a.923.923 0 0 1 .827-.467c.518 0 .925.369.925.92 0 .595-.424.964-.933.964-.446 0-.84-.234-.908-.611h-1.256Z" fill="#EEECEC"/><ellipse cx="110.345" cy="17.132" rx="9.629" ry="9.752" fill="#000" fill-opacity=".4"/><path d="M109.69 17.395h.649c.564 0 .895.33.899.755.005.445-.364.76-.916.76-.513-.005-.9-.285-.916-.671h-1.265c.017.92.764 1.727 2.189 1.727 1.193 0 2.292-.581 2.283-1.74-.008-.903-.683-1.32-1.234-1.37v-.072c.411-.064 1.077-.467 1.069-1.29-.009-.896-.802-1.532-2.079-1.528-1.333 0-2.109.696-2.143 1.71h1.281c.013-.343.327-.674.811-.674.441 0 .785.271.785.674 0 .39-.319.688-.789.688h-.624v1.03Z" fill="#EEECEC"/><ellipse cx="47.757" cy="17" rx="14.704" ry="14.892" fill="#000" fill-opacity=".4"/><path d="M45.85 20.542v-7.02h-1.672l-1.656 1.167v1.492l1.574-1.106h.082v5.467h1.672ZM48.146 18.782l4.233-4.286.736.746-4.233 4.286z" fill="#FFD50B"/><path fill="#FFD50B" d="m48.882 14.496 4.233 4.287-.737.745-4.232-4.286z"/></svg>